<svg width="56" height="51" viewBox="0 0 56 51" fill="none" xmlns="http://www.w3.org/2000/svg">
<path d="M44.3333 8.5H11.6667C9.81016 8.5 8.02968 9.17165 6.71692 10.3672C5.40417 11.5627 4.66667 13.1842 4.66667 14.875V36.125C4.66667 37.8157 5.40417 39.4373 6.71692 40.6328C8.02968 41.8283 9.81016 42.5 11.6667 42.5H44.3333C46.1899 42.5 47.9703 41.8283 49.2831 40.6328C50.5958 39.4373 51.3333 37.8157 51.3333 36.125V14.875C51.3333 13.1842 50.5958 11.5627 49.2831 10.3672C47.9703 9.17165 46.1899 8.5 44.3333 8.5ZM42.77 12.75L28 22.8437L13.23 12.75H42.77ZM44.3333 38.25H11.6667C11.0478 38.25 10.4543 38.0261 10.0168 37.6276C9.57917 37.2291 9.33334 36.6886 9.33334 36.125V15.4062L26.6 27.2C27.0039 27.4759 27.4951 27.625 28 27.625C28.5049 27.625 28.9961 27.4759 29.4 27.2L46.6667 15.4062V36.125C46.6667 36.6886 46.4208 37.2291 45.9833 37.6276C45.5457 38.0261 44.9522 38.25 44.3333 38.25Z" fill="#15D6E8"/>
</svg>
