<svg width="50" height="46" viewBox="0 0 50 46" fill="none" xmlns="http://www.w3.org/2000/svg">
<path d="M46.5083 0.5H3.49167C2.78664 0.5 2.11048 0.760758 1.61194 1.22491C1.11341 1.68906 0.833336 2.31859 0.833336 2.975V43.025C0.833336 43.35 0.902096 43.6719 1.03569 43.9721C1.16928 44.2724 1.36509 44.5453 1.61194 44.7751C1.85879 45.0049 2.15185 45.1872 2.47437 45.3116C2.79689 45.436 3.14257 45.5 3.49167 45.5H26.6433V28.0625H20.36V21.3125H26.6433V16.25C26.5132 15.0615 26.6639 13.8608 27.0849 12.7322C27.5059 11.6036 28.187 10.5745 29.0805 9.71693C29.9739 8.85937 31.058 8.19419 32.2568 7.76804C33.4556 7.34188 34.74 7.16507 36.02 7.25C37.901 7.23922 39.781 7.32937 41.6508 7.52V13.595H37.8083C34.7633 13.595 34.1833 14.945 34.1833 16.9025V21.245H41.4333L40.4908 27.995H34.1833V45.5H46.5083C46.8574 45.5 47.2031 45.436 47.5256 45.3116C47.8482 45.1872 48.1412 45.0049 48.3881 44.7751C48.6349 44.5453 48.8307 44.2724 48.9643 43.9721C49.0979 43.6719 49.1667 43.35 49.1667 43.025V2.975C49.1667 2.64998 49.0979 2.32814 48.9643 2.02786C48.8307 1.72758 48.6349 1.45474 48.3881 1.22491C48.1412 0.995086 47.8482 0.812779 47.5256 0.688398C47.2031 0.564018 46.8574 0.5 46.5083 0.5Z" fill="black"/>
</svg>
