<svg width="58" height="53" viewBox="0 0 58 53" fill="none" xmlns="http://www.w3.org/2000/svg">
<path d="M28.9964 0C12.9848 0 1.19664e-05 12.1365 1.19664e-05 27.108C-0.00652978 32.79 1.905 38.3302 5.46445 42.9456C9.0239 47.5611 14.0513 51.0184 19.836 52.8289C21.286 53.0786 21.8153 52.2416 21.8153 51.5228C21.8153 50.8781 21.7899 49.1737 21.7754 46.9125C13.7098 48.5494 12.006 43.2776 12.006 43.2776C10.6901 40.1456 8.78701 39.312 8.78701 39.312C6.15164 37.6312 8.98276 37.665 8.98276 37.665C11.8936 37.8574 13.4234 40.4595 13.4234 40.4595C16.0116 44.6006 20.213 43.4059 21.866 42.7106C22.127 40.959 22.8774 39.7643 23.7075 39.0859C17.2695 38.4008 10.498 36.0754 10.498 25.6905C10.498 22.7306 11.629 20.3107 13.485 18.414C13.1841 17.7289 12.1909 14.9715 13.7678 11.2421C13.7678 11.2421 16.2038 10.5131 21.7428 14.0197C24.109 13.4177 26.5507 13.1113 29.0036 13.1085C31.4567 13.113 33.8983 13.4206 36.2645 14.0231C41.7999 10.5165 44.2323 11.2455 44.2323 11.2455C45.8128 14.9782 44.8195 17.7323 44.5223 18.4174C46.3819 20.3141 47.502 22.734 47.502 25.6939C47.502 36.1058 40.7233 38.3974 34.2635 39.069C35.3039 39.906 36.2319 41.5597 36.2319 44.0876C36.2319 47.7124 36.1956 50.6351 36.1956 51.5228C36.1956 52.2484 36.7176 53.0921 38.1894 52.8255C43.9685 51.0107 48.9896 47.5521 52.5442 42.9378C56.0987 38.3234 58.007 32.7864 58 27.108C58 12.1365 45.0153 0 28.9964 0Z" fill="black"/>
</svg>
