<svg width="50" height="46" viewBox="0 0 50 46" fill="none" xmlns="http://www.w3.org/2000/svg">
<path d="M25 17.42C23.8146 17.42 22.6559 17.7473 21.6703 18.3604C20.6847 18.9735 19.9165 19.845 19.4629 20.8646C19.0093 21.8842 18.8906 23.0062 19.1218 24.0886C19.3531 25.171 19.9239 26.1653 20.7621 26.9457C21.6003 27.726 22.6682 28.2575 23.8308 28.4728C24.9933 28.6881 26.1984 28.5776 27.2935 28.1553C28.3887 27.7329 29.3247 27.0177 29.9833 26.1001C30.6418 25.1825 30.9933 24.1036 30.9933 23C30.9933 22.2672 30.8383 21.5416 30.5371 20.8646C30.2359 20.1876 29.7945 19.5725 29.2379 19.0543C28.6814 18.5362 28.0207 18.1252 27.2935 17.8448C26.5664 17.5643 25.7871 17.42 25 17.42ZM48.9975 11.9075C48.9848 10.17 48.6411 8.44829 47.9825 6.8225C47.4974 5.63284 46.7469 4.55246 45.7805 3.65267C44.814 2.75287 43.6536 2.05411 42.3758 1.6025C40.6296 0.989294 38.7804 0.669337 36.9142 0.6575C33.7967 0.5 32.8783 0.5 25 0.5C17.1217 0.5 16.2033 0.5 13.0858 0.6575C11.2196 0.669337 9.37038 0.989294 7.62416 1.6025C6.34637 2.05411 5.18597 2.75287 4.21953 3.65267C3.25308 4.55246 2.50256 5.63284 2.01749 6.8225C1.35887 8.44829 1.01521 10.17 1.00249 11.9075C0.833328 14.81 0.833328 15.665 0.833328 23C0.833328 30.335 0.833328 31.19 1.00249 34.0925C1.02851 35.8362 1.3717 37.5631 2.01749 39.2C2.50041 40.3842 3.25031 41.4584 4.21666 42.35C5.17896 43.2552 6.34185 43.954 7.62416 44.3975C9.37038 45.0107 11.2196 45.3307 13.0858 45.3425C16.2033 45.5 17.1217 45.5 25 45.5C32.8783 45.5 33.7967 45.5 36.9142 45.3425C38.7804 45.3307 40.6296 45.0107 42.3758 44.3975C43.6581 43.954 44.821 43.2552 45.7833 42.35C46.7497 41.4584 47.4996 40.3842 47.9825 39.2C48.6405 37.5662 48.9841 35.8373 48.9975 34.0925C49.1667 31.19 49.1667 30.335 49.1667 23C49.1667 15.665 49.1667 14.81 48.9975 11.9075ZM42.8592 29.9075C42.7816 31.296 42.4633 32.6637 41.9167 33.9575C41.4475 35.0368 40.7501 36.0172 39.8658 36.8405C38.9815 37.6639 37.9284 38.3132 36.7692 38.75C35.3663 39.2306 33.8891 39.4965 32.395 39.5375C30.4858 39.5375 29.9783 39.5375 25 39.5375C20.0217 39.5375 19.5142 39.5375 17.605 39.5375C16.1108 39.4965 14.6337 39.2306 13.2308 38.75C12.0324 38.3354 10.9502 37.6739 10.065 36.815C9.18936 36.0078 8.51312 35.0327 8.08333 33.9575C7.56509 32.6528 7.28729 31.2759 7.26166 29.885C7.26166 28.1075 7.26166 27.635 7.26166 23C7.26166 18.365 7.26166 17.8925 7.26166 16.115C7.28729 14.7241 7.56509 13.3472 8.08333 12.0425C8.52868 10.9267 9.23916 9.91913 10.1617 9.095C11.0325 8.28415 12.0787 7.65521 13.2308 7.25C14.6337 6.76941 16.1108 6.50347 17.605 6.4625C19.5142 6.4625 20.0217 6.4625 25 6.4625C29.9783 6.4625 30.4858 6.4625 32.395 6.4625C33.8891 6.50347 35.3663 6.76941 36.7692 7.25C37.9676 7.66463 39.0498 8.32612 39.935 9.185C40.8106 9.99219 41.4869 10.9673 41.9167 12.0425C42.4328 13.3486 42.7185 14.7239 42.7625 16.115C42.7625 17.8925 42.7625 18.365 42.7625 23C42.7625 27.635 42.9317 28.1075 42.8592 29.885V29.9075ZM38.9925 13.1675C38.7048 12.4407 38.2511 11.7807 37.6628 11.233C37.0745 10.6853 36.3656 10.2629 35.585 9.995C34.5131 9.64909 33.3842 9.48153 32.25 9.5C30.365 9.5 29.8333 9.5 25 9.5C20.1667 9.5 19.635 9.5 17.75 9.5C16.61 9.51038 15.4809 9.70843 14.415 10.085C13.6463 10.3407 12.9449 10.7459 12.3574 11.2735C11.7699 11.8011 11.3097 12.439 11.0075 13.145C10.6565 14.1471 10.4851 15.1961 10.5 16.25C10.5 18.005 10.5 18.5 10.5 23C10.5 27.5 10.5 27.995 10.5 29.75C10.524 30.8102 10.7363 31.8594 11.1283 32.855C11.4161 33.5818 11.8697 34.2418 12.458 34.7895C13.0463 35.3372 13.7552 35.7596 14.5358 36.0275C15.5669 36.3806 16.652 36.578 17.75 36.6125C19.635 36.6125 20.1667 36.6125 25 36.6125C29.8333 36.6125 30.365 36.6125 32.25 36.6125C33.39 36.6021 34.5191 36.4041 35.585 36.0275C36.3656 35.7596 37.0745 35.3372 37.6628 34.7895C38.2511 34.2418 38.7048 33.5818 38.9925 32.855C39.397 31.8626 39.6097 30.8114 39.6208 29.75C39.6208 27.995 39.6208 27.5 39.6208 23C39.6208 18.5 39.6208 18.005 39.6208 16.25C39.6215 15.1875 39.4084 14.1344 38.9925 13.145V13.1675ZM25 31.595C23.7888 31.595 22.5895 31.3725 21.4708 30.9403C20.3522 30.5081 19.3361 29.8746 18.4808 29.0762C17.6254 28.2778 16.9477 27.3301 16.4864 26.2875C16.0251 25.2448 15.7893 24.1277 15.7925 23C15.7925 21.2991 16.3345 19.6365 17.35 18.2225C18.3655 16.8086 19.8087 15.707 21.497 15.0571C23.1852 14.4073 25.0427 14.2384 26.8341 14.5718C28.6255 14.9053 30.2704 15.7261 31.5605 16.9304C32.8506 18.1347 33.7279 19.6683 34.0814 21.337C34.4349 23.0058 34.2486 24.7347 33.5462 26.3048C32.8437 27.8749 31.6567 29.2157 30.1354 30.1574C28.6141 31.0992 26.8269 31.5995 25 31.595ZM34.6667 16.0925C34.1324 16.0399 33.638 15.805 33.2787 15.4332C32.9194 15.0614 32.7206 14.5789 32.7206 14.0788C32.7206 13.5786 32.9194 13.0961 33.2787 12.7243C33.638 12.3525 34.1324 12.1177 34.6667 12.065C35.2009 12.1177 35.6953 12.3525 36.0546 12.7243C36.4139 13.0961 36.6127 13.5786 36.6127 14.0788C36.6127 14.5789 36.4139 15.0614 36.0546 15.4332C35.6953 15.805 35.2009 16.0399 34.6667 16.0925Z" fill="black"/>
</svg>
