<svg width="50" height="46" viewBox="0 0 50 46" fill="none" xmlns="http://www.w3.org/2000/svg">
<path d="M45.4692 0.500009H4.53083C4.07065 0.494059 3.61371 0.572566 3.18612 0.731048C2.75852 0.88953 2.36865 1.12488 2.03876 1.42366C1.70887 1.72244 1.44543 2.0788 1.26348 2.47238C1.08153 2.86596 0.984636 3.28906 0.978333 3.71751V42.2825C0.984636 42.711 1.08153 43.1341 1.26348 43.5276C1.44543 43.9212 1.70887 44.2776 2.03876 44.5764C2.36865 44.8751 2.75852 45.1105 3.18612 45.269C3.61371 45.4275 4.07065 45.506 4.53083 45.5H45.4692C45.9294 45.506 46.3863 45.4275 46.8139 45.269C47.2415 45.1105 47.6314 44.8751 47.9612 44.5764C48.2911 44.2776 48.5546 43.9212 48.7365 43.5276C48.9185 43.1341 49.0154 42.711 49.0217 42.2825V3.71751C49.0154 3.28906 48.9185 2.86596 48.7365 2.47238C48.5546 2.0788 48.2911 1.72244 47.9612 1.42366C47.6314 1.12488 47.2415 0.88953 46.8139 0.731048C46.3863 0.572566 45.9294 0.494059 45.4692 0.500009ZM15.5508 38.165H8.30083V17.915H15.5508V38.165ZM11.9258 15.08C10.926 15.08 9.96705 14.7102 9.26004 14.052C8.55303 13.3937 8.15583 12.5009 8.15583 11.57C8.15583 10.6391 8.55303 9.74632 9.26004 9.08807C9.96705 8.42981 10.926 8.06001 11.9258 8.06001C12.4568 8.00395 12.9944 8.05293 13.5036 8.20375C14.0128 8.35456 14.482 8.60381 14.8806 8.93517C15.2791 9.26653 15.598 9.67254 15.8164 10.1266C16.0347 10.5807 16.1476 11.0725 16.1476 11.57C16.1476 12.0675 16.0347 12.5594 15.8164 13.0134C15.598 13.4675 15.2791 13.8735 14.8806 14.2048C14.482 14.5362 14.0128 14.7855 13.5036 14.9363C12.9944 15.0871 12.4568 15.1361 11.9258 15.08ZM41.6992 38.165H34.4492V27.2975C34.4492 24.575 33.41 22.7975 30.7758 22.7975C29.9606 22.8031 29.1668 23.0411 28.5014 23.4796C27.8359 23.9182 27.3308 24.536 27.0542 25.25C26.8651 25.7789 26.7831 26.3358 26.8125 26.8925V38.1425H19.5625C19.5625 38.1425 19.5625 19.7375 19.5625 17.8925H26.8125V20.75C27.4711 19.686 28.429 18.8094 29.5831 18.2147C30.7371 17.62 32.0435 17.3297 33.3617 17.375C38.195 17.375 41.6992 20.2775 41.6992 26.51V38.165Z" fill="black"/>
</svg>
