<svg width="40" height="52" viewBox="0 0 40 52" fill="none" xmlns="http://www.w3.org/2000/svg">
<path d="M2.21671 17.9924C2.2167 15.8925 2.67573 13.8131 3.56759 11.8731C4.45945 9.93308 5.76666 8.17068 7.4146 6.68586C9.06254 5.20104 11.0189 4.02283 13.1721 3.21925C15.3252 2.41567 17.6329 2.00223 19.9635 2.00223C22.294 2.00223 24.6017 2.41567 26.7549 3.21925C28.908 4.02283 30.8644 5.20104 32.5123 6.68586C34.1602 8.17068 35.4675 9.93308 36.3593 11.8731C37.2512 13.8131 37.7102 15.8925 37.7102 17.9924" fill="#1A1B1A"/>
<path fill-rule="evenodd" clip-rule="evenodd" d="M2.28769 18.0201C2.28769 29.9995 13.8208 39.3553 19.5909 50.0004C25.6559 39.3525 37.7812 29.9995 37.7812 18.0201" fill="#1A1B1A"/>
<path d="M24.4 18.0064C24.4 19.0666 23.9326 20.083 23.1005 20.8327C22.2685 21.5824 21.14 22.0039 19.9633 22.0039C18.7867 22.0039 17.6582 21.5824 16.8261 20.8327C15.9941 20.083 15.5266 19.0666 15.5266 18.0064C15.5266 16.9461 15.9941 15.9292 16.8261 15.1795C17.6582 14.4298 18.7867 14.0088 19.9633 14.0088C21.14 14.0088 22.2685 14.4298 23.1005 15.1795C23.9326 15.9292 24.4 16.9461 24.4 18.0064Z" fill="white"/>
<path d="M19.9653 0C8.96519 0 0.000209741 8.07781 0.00022172 17.9889C-0.00393431 18.2538 0.050374 18.5166 0.159991 18.7623C0.269609 19.0081 0.432349 19.232 0.638753 19.4206C0.845158 19.6092 1.09111 19.759 1.36232 19.8613C1.63353 19.9635 1.92458 20.016 2.21857 20.016C2.51255 20.016 2.80361 19.9635 3.07482 19.8613C3.34602 19.759 3.59198 19.6092 3.79838 19.4206C4.00479 19.232 4.16753 19.0081 4.27714 18.7623C4.38676 18.5166 4.44107 18.2538 4.43691 17.9889C4.4369 10.2381 11.363 3.99753 19.9653 3.99753C28.5677 3.99753 35.4938 10.2381 35.4938 17.9889C35.4896 18.2538 35.5439 18.5166 35.6535 18.7623C35.7631 19.0081 35.9259 19.232 36.1323 19.4206C36.3387 19.6092 36.5847 19.759 36.8559 19.8613C37.1271 19.9635 37.4181 20.016 37.7121 20.016C38.0061 20.016 38.2971 19.9635 38.5684 19.8613C38.8396 19.759 39.0855 19.6092 39.2919 19.4206C39.4983 19.232 39.6611 19.0081 39.7707 18.7623C39.8803 18.5166 39.9346 18.2538 39.9305 17.9889C39.9305 8.07781 30.9655 0 19.9653 0Z" fill="#15D6E8"/>
<path fill-rule="evenodd" clip-rule="evenodd" d="M2.25323 15.9899C1.96192 15.994 1.67435 16.0496 1.40695 16.1539C1.13955 16.2581 0.897554 16.4089 0.69478 16.5974C0.492005 16.7859 0.332423 17.0082 0.225145 17.2523C0.117867 17.4964 0.0649947 17.7574 0.0695456 18.0199C0.0695456 24.5878 3.21095 30.2864 6.89789 35.5716C10.5848 40.8567 14.8579 45.8165 17.5997 50.8746C17.7798 51.2086 18.0595 51.4908 18.4076 51.6895C18.7557 51.8883 19.1583 51.9957 19.5703 51.9999C19.9824 52.004 20.3876 51.9046 20.7405 51.713C21.0934 51.5213 21.3801 51.2449 21.5684 50.9146C24.4472 45.8605 28.9309 40.8966 32.8075 35.6111C36.6841 30.3251 39.9998 24.6174 39.9998 18.0199C40.0039 17.755 39.9496 17.4917 39.84 17.246C39.7304 17.0002 39.5677 16.7768 39.3613 16.5882C39.1548 16.3995 38.9089 16.2497 38.6377 16.1475C38.3665 16.0453 38.0754 15.9923 37.7814 15.9923C37.4874 15.9923 37.1964 16.0453 36.9252 16.1475C36.654 16.2497 36.408 16.3995 36.2016 16.5882C35.9952 16.7768 35.8325 17.0002 35.7229 17.246C35.6132 17.4917 35.5589 17.755 35.5631 18.0199C35.5631 23.4022 32.8097 28.3607 29.1074 33.4088C26.0558 37.5691 22.6139 41.8665 19.6361 46.3305C16.8093 41.8853 13.5442 37.5965 10.65 33.4479C7.12787 28.399 4.50624 23.4318 4.50624 18.0199C4.51088 17.7522 4.45578 17.4863 4.34419 17.2382C4.23261 16.99 4.06683 16.7643 3.85669 16.575C3.64654 16.3856 3.39632 16.2363 3.12088 16.1358C2.84543 16.0353 2.55038 15.9857 2.25323 15.9899Z" fill="#15D6E8"/>
<path d="M19.9653 12.0082C16.3161 12.0082 13.3103 14.7165 13.3103 18.0045C13.3103 21.2925 16.3161 24.0008 19.9653 24.0008C23.6145 24.0008 26.6203 21.2925 26.6203 18.0045C26.6203 14.7165 23.6145 12.0082 19.9653 12.0082ZM19.9653 16.0057C21.2167 16.0057 22.1837 16.8772 22.1837 18.0045C22.1837 19.1322 21.2167 20.0033 19.9653 20.0033C18.7139 20.0033 17.747 19.1322 17.747 18.0045C17.747 16.8772 18.7139 16.0057 19.9653 16.0057Z" fill="#15D6E8"/>
</svg>
