<svg width="41" height="42" viewBox="0 0 41 42" fill="none" xmlns="http://www.w3.org/2000/svg">
<path d="M38.3014 30.3164C36.676 28.5586 32.0559 25.2656 29.0277 25.2656C28.3264 25.2656 27.7141 25.4297 27.2131 25.7695C25.7324 26.7656 24.5523 27.5391 23.9846 27.5391C23.6729 27.5391 23.3389 27.2461 22.6041 26.5781L22.4816 26.4609C20.4443 24.5977 20.0102 24.1172 19.2197 23.25L19.0193 23.0273C18.8746 22.875 18.7521 22.7344 18.6297 22.6055C17.9395 21.8555 17.4385 21.3164 15.6684 19.207L15.5904 19.1133C14.7443 18.1055 14.1877 17.4492 14.1543 16.9687C14.1209 16.5 14.5105 15.7383 15.5014 14.3203C16.7037 12.6094 16.7482 10.5 15.6461 8.05078C14.7666 6.11719 13.3305 4.26563 12.0613 2.63672L11.95 2.49609C10.859 1.08984 9.58984 0.386719 8.17597 0.386719C6.60625 0.386719 5.30371 1.27734 4.61347 1.74609C4.55781 1.78125 4.50215 1.82812 4.44648 1.86328C2.89902 2.89453 1.77461 4.3125 1.35156 5.75391C0.716988 7.92188 0.293942 10.7344 3.3332 16.582C5.96054 21.6445 8.34297 25.043 12.1281 29.1328C15.6906 32.9766 17.2715 34.2187 20.8117 36.9141C24.7527 39.9141 28.5379 41.6367 31.1875 41.6367C33.6479 41.6367 35.585 41.6367 38.3459 38.1328C41.2404 34.4531 40.0381 32.2031 38.3014 30.3164Z" fill="#15D6E8"/>
</svg>
