<svg width="58" height="45" viewBox="0 0 58 45" fill="none" xmlns="http://www.w3.org/2000/svg">
<path d="M58 5.94414C55.8182 6.83008 53.5108 7.41887 51.1488 7.69239C53.6379 6.3175 55.4991 4.14041 56.3796 1.57351C54.0488 2.86052 51.4987 3.76684 48.8396 4.25326C47.2093 2.63251 45.093 1.50574 42.7659 1.01932C40.4388 0.532896 38.0083 0.70932 35.7903 1.52567C33.5722 2.34201 31.6692 3.76055 30.3283 5.59697C28.9874 7.43339 28.2707 9.60281 28.2714 11.8234C28.2714 12.7009 28.3511 13.5446 28.5469 14.3479C23.8165 14.132 19.1884 12.9889 14.9651 10.9935C10.7418 8.99813 7.01834 6.19529 4.03825 2.76826C2.51147 5.20453 2.03946 8.091 2.71833 10.8399C3.3972 13.5888 5.1759 15.9935 7.69225 17.5643C5.81 17.5173 3.96747 17.0496 2.32 16.2008V16.3223C2.32315 18.8786 3.27216 21.3559 5.00728 23.3371C6.74239 25.3183 9.15765 26.6824 11.8465 27.1999C10.8293 27.4495 9.78092 27.5721 8.729 27.5644C7.97351 27.5769 7.21877 27.5135 6.47787 27.3754C7.24616 29.5726 8.72715 31.494 10.7169 32.8751C12.7067 34.2562 15.1074 35.0291 17.5885 35.0873C13.3797 38.1519 8.18878 39.8144 2.84563 39.8089C1.8705 39.8089 0.93525 39.7684 0 39.657C5.43707 42.9191 11.7728 44.6446 18.241 44.625C40.1215 44.625 52.084 27.75 52.084 13.1228C52.084 12.6334 52.0659 12.1609 52.0405 11.6918C54.3857 10.1291 56.4053 8.18136 58 5.94414Z" fill="black"/>
</svg>
