<?xml version="1.0" standalone="yes"?>
<svg xmlns="http://www.w3.org/2000/svg" width="805" height="643">
<path style="fill:#dfdadb; stroke:none;" d="M0 0L0 643L805 643L805 0L0 0z"/>
<path style="fill:#020201; stroke:none;" d="M2 1L2 642L803 642L803 1L2 1z"/>
<path style="fill:#655d41; stroke:none;" d="M803 1L803 642L804 642L804 188L804 57L804 19L803 1M378 220L391 211L367 237C376.043 230.63 384.307 221.325 391.576 213.001C394.457 209.702 398.878 203.807 404 204.956C410.836 206.489 416.362 216.028 422 220L414 211L437 229C430.498 219.77 413.648 198.394 401 200.218C392.145 201.494 382.852 213.112 378 220z"/>
<path style="fill:#bf405b; stroke:none;" d="M390 209L392 211L392 209L390 209M413 209L413 210L416 210L413 209M342 256C349.917 255.907 353.641 251.368 359 246C369.692 235.292 382.975 223.83 391 211L376 221.285L342 256M414 211C422.861 223.591 435.147 234.147 446 245C451.171 250.171 455.267 255.749 463 256C456.763 242.626 440.332 232.28 430 221.999C425.199 217.221 421.065 211.787 414 211z"/>
<path style="fill:#655d41; stroke:none;" d="M443 242L444 243L443 242M444 243L445 244L444 243M445 244L446 245L445 244M446 245L447 246L446 245M447 246L448 247L447 246M448 247L449 248L448 247M449 248L450 249L449 248M450 249L451 250L450 249M451 250L452 251L451 250M452 251L453 252L452 251M453 252L454 253L453 252M454 253L455 254L454 253M455 254L456 255L455 254M463 255L464 256L463 255M291 272L292 272L301 264C295.888 262.663 292.256 267.537 291 272z"/>
<path style="fill:#f1b183; stroke:none;" d="M292 293C298.599 286.538 291.579 272.952 302.005 268.894C314.31 264.103 334.828 268 348 268L454 268L489 268C493.943 268 500.418 266.962 504.956 269.318C514.25 274.143 506.487 286.742 514 293C514.433 282.918 518.746 266.782 505 264L505 265L511 269C470.048 262.066 424.637 267 383 267C354.792 267 322.496 262.715 295 269C299.792 263.513 306.225 264 313 264L349 264L504 264C498.784 261.811 491.619 263 486 263L449 263L347 263C332.867 263 313.509 259.56 300 263.804C288.834 267.312 289.256 283.718 292 293z"/>
<path style="fill:#655d41; stroke:none;" d="M504 263L504 264L507 264L504 263z"/>
<path style="fill:#dfdadb; stroke:none;" d="M295 269C325.951 264.449 358.637 267 390 267C430.211 267 471.153 265.033 511 269C503.116 259.304 478.547 264 467 264L343 264L309 264C303.596 264.009 297.964 263.875 295 269z"/>
<path style="fill:#655d41; stroke:none;" d="M508 264L509 265L508 264M510 265L511 266L510 265M511 266L512 267L511 266M512 267L513 268L512 267M302 268L302 269L504 269L485 268L444 268L302 268M513.333 268.667L513.667 269.333L513.333 268.667M299 269L300 270L299 269M505.667 269.333L506.333 269.667L505.667 269.333M298 270L299 271L298 270M507 270L508 271L507 270M514 270L514 273L515 273L514 270M297 271L298 272L297 271M508.333 271.667L508.667 272.333L508.333 271.667M296 272L296 285L297 285L296 272M290 273C290 278.561 287.646 291.196 292 295L290 273M509 273L509 290L510 290L509 273M515 274L514 295C517.832 291.651 516.885 278.492 515 274M293 305L310 292L286 318L313 292L327 276C315.038 276.388 299.567 295.677 293 305M479 276C484.105 286.947 499.159 300.068 509 307L496 292L524 316C516.178 304.895 504.6 295.6 495 286C490.075 281.076 486.32 276.237 479 276z"/>
<path style="fill:#bf405b; stroke:none;" d="M295 280L295 290L296 290L295 280z"/>
<path style="fill:#655d41; stroke:none;" d="M351 288L351 289C362.438 289 380.291 285.581 390.995 289.603C396.781 291.777 398.834 299.2 393.772 303.297C389.961 306.381 384.591 305.997 380 306L378 351L379 351L381 342C401.122 346.655 421.396 355 442 355L442 354C430.781 354 421.529 353.354 413.093 344.907C396.825 328.616 403.422 299.881 424 291C400.546 284.675 375.088 288 351 288z"/>
<path style="fill:#bf405b; stroke:none;" d="M514 287L513 294L514 287z"/>
<path style="fill:#655d41; stroke:none;" d="M429 288L429 289L439 289L429 288z"/>
<path style="fill:#bf405b; stroke:none;" d="M362 306C362 318.859 360.975 332.192 362.094 345C362.532 350.005 365.516 354.341 370.999 354.341C377.683 354.341 379.054 348.412 379.598 343C380.822 330.813 380 318.238 380 306C384.455 306 389.903 306.6 393.772 303.91C405.902 295.478 388.971 289 382 289C372.842 289 357.503 286.052 349.108 289.858C343.421 292.436 343.396 300.677 348.225 304.142C351.973 306.832 357.651 306 362 306z"/>
<path style="fill:#655d41; stroke:none;" d="M425.667 289.333L426.333 289.667L425.667 289.333z"/>
<path style="fill:#bf405b; stroke:none;" d="M427 289.529C385.382 299.083 405.691 369.797 447 352.12C453.533 349.324 463.036 341.898 456.486 334.228C450.835 327.612 444.805 334.238 439 336.273C432.143 338.677 425.501 334.131 422.573 328C418.669 319.828 424.258 306.933 434 306.318C440.106 305.932 447.261 312.387 452.258 305.772C462.865 291.728 435.127 287.664 427 289.529z"/>
<path style="fill:#655d41; stroke:none;" d="M442 289L443 290L442 289M295 290L296 291L295 290M347 290L348 291L347 290M445 290L446 291L445 290z"/>
<path style="fill:#bf405b; stroke:none;" d="M510 290L511 291L510 290z"/>
<path style="fill:#655d41; stroke:none;" d="M294 291L295 292L294 291M447 291L448 292L447 291z"/>
<path style="fill:#bf405b; stroke:none;" d="M511 291L512 292L511 291M291 292L291 294L293 294L291 292M293 292L294 293L293 292M328 369C319.483 356.91 306.69 346.262 296 336.039C292.068 332.279 283.84 327.51 285.362 321C287.903 310.133 304.035 301.537 310 292C299.889 294.629 277.045 314.008 280.657 326C283.265 334.661 293.815 341.369 299.576 348C307.132 356.698 315.7 368.957 328 369z"/>
<path style="fill:#655d41; stroke:none;" d="M345 292L346 293L345 292M449 292L450 293L449 292z"/>
<path style="fill:#bf405b; stroke:none;" d="M496 292C500.275 299.396 507.15 305.828 513.039 312C515.631 314.716 520.148 317.946 520.534 322C521.043 327.351 513.324 332.676 510 336C499.447 346.553 486.597 356.795 478 369C488.561 368.875 495.035 358.965 502 352C509.929 344.071 530.524 330.406 523.821 317C520.934 311.226 514.51 306.503 510 302C505.782 297.789 501.951 293.415 496 292M512 292L513 293L512 292z"/>
<path style="fill:#655d41; stroke:none;" d="M450 293L451 294L450 293M344.333 294.667L344.667 295.333L344.333 294.667z"/>
<path style="fill:#f1b183; stroke:none;" d="M350 299L351 299L351 295C359.818 295 386.411 290.678 391 299C392.583 294.33 387.588 294.054 384 294.004C376.555 293.9 351.483 290.113 350 299M430 294L430 295L439 295L430 294z"/>
<path style="fill:#dfdadb; stroke:none;" d="M351 295L351 299L391 299C389.345 294.013 384.54 295 380 295L351 295z"/>
<path style="fill:#f1b183; stroke:none;" d="M426.667 295.333L427.333 295.667L426.667 295.333z"/>
<path style="fill:#dfdadb; stroke:none;" d="M451 337C444.173 340.225 437.99 345.272 430 342.772C412.12 337.176 410.524 312.787 425.004 302.652C433.376 296.792 439.413 302.519 448 302C445.32 293.087 430.971 293.513 424 297C413.363 302.321 408.336 315.626 410.468 327C412.505 337.874 420.578 346.974 432 347.907C438.932 348.473 453.165 346.624 451 337z"/>
<path style="fill:#f1b183; stroke:none;" d="M441.667 295.333L442.333 295.667L441.667 295.333M424 296L425 297L424 296M443.667 296.333L444.333 296.667L443.667 296.333z"/>
<path style="fill:#655d41; stroke:none;" d="M453 296L454 297L453 296z"/>
<path style="fill:#f1b183; stroke:none;" d="M422 297L423 298L422 297M446 297L447 298L446 297z"/>
<path style="fill:#655d41; stroke:none;" d="M344 298L344 301L345 301L344 298z"/>
<path style="fill:#f1b183; stroke:none;" d="M420.667 298.333L421.333 298.667L420.667 298.333M447 298L448 299L447 298z"/>
<path style="fill:#655d41; stroke:none;" d="M454 298L454 303L455 303L454 298z"/>
<path style="fill:#f1b183; stroke:none;" d="M352 299L352 300L390 300C379.964 295.789 362.911 299 352 299M419 299L420 300L419 299M432 299L432 300L437 300L432 299M448.333 299.667L448.667 300.333L448.333 299.667M418 300L419 301L418 300M428.667 300.333L429.333 300.667L428.667 300.333M439.667 300.333L440.333 300.667L439.667 300.333z"/>
<path style="fill:#655d41; stroke:none;" d="M345.333 301.667L345.667 302.333L345.333 301.667z"/>
<path style="fill:#f1b183; stroke:none;" d="M368 348L369 348L369 302L373 302L373 348C377.008 338.45 374.001 322.371 374 312C374 309.696 375.023 300.218 370.259 301.752C366.759 302.878 368 310.27 368 313L368 348M417 301L418 302L417 301M426 301L427 302L426 301M442 301L443 302L442 301z"/>
<path style="fill:#dfdadb; stroke:none;" d="M369 302L369 348L373 348L373 302L369 302z"/>
<path style="fill:#f1b183; stroke:none;" d="M416 302L417 303L416 302M424.667 302.333L425.333 302.667L424.667 302.333M443.667 302.333L444.333 302.667L443.667 302.333M446.667 302.333L447.333 302.667L446.667 302.333z"/>
<path style="fill:#655d41; stroke:none;" d="M346 303L347 304L346 303z"/>
<path style="fill:#f1b183; stroke:none;" d="M415 303L416 304L415 303M423 303L424 304L423 303z"/>
<path style="fill:#655d41; stroke:none;" d="M347 304L348 305L347 304z"/>
<path style="fill:#f1b183; stroke:none;" d="M414.333 304.667L414.667 305.333L414.333 304.667M422 304L423 305L422 304z"/>
<path style="fill:#655d41; stroke:none;" d="M453 304L454 305L453 304M349.667 305.333L350.333 305.667L349.667 305.333z"/>
<path style="fill:#f1b183; stroke:none;" d="M421 305L422 306L421 305z"/>
<path style="fill:#655d41; stroke:none;" d="M351 306L351 307C363.988 307.423 361 333.217 361 343L362 343L362 306L351 306z"/>
<path style="fill:#f1b183; stroke:none;" d="M413.333 306.667L413.667 307.333L413.333 306.667M420 306L421 307L420 306z"/>
<path style="fill:#655d41; stroke:none;" d="M448 332L448 331L444 331L443 310L449 310C443.083 307.338 434.029 304.229 428.043 308.009C415.68 315.817 420.698 337.69 436 336.952C440.625 336.729 444 333.978 448 332M452 306L453 307L452 306z"/>
<path style="fill:#f1b183; stroke:none;" d="M419 307L420 308L419 307z"/>
<path style="fill:#655d41; stroke:none;" d="M451 307L452 308L451 307z"/>
<path style="fill:#f1b183; stroke:none;" d="M412.333 308.667L412.667 309.333L412.333 308.667z"/>
<path style="fill:#655d41; stroke:none;" d="M449.667 308.333L450.333 308.667L449.667 308.333z"/>
<path style="fill:#f1b183; stroke:none;" d="M418 309L419 310L418 309M411.333 310.667L411.667 311.333L411.333 310.667M417.333 310.667L417.667 311.333L417.333 310.667M410 313L410 317L411 317L410 313M416.333 313.667L416.667 314.333L416.333 313.667z"/>
<path style="fill:#655d41; stroke:none;" d="M282 315L283 316L282 315M281 316L282 317L281 316z"/>
<path style="fill:#f1b183; stroke:none;" d="M415 316L415 328L416 328L415 316z"/>
<path style="fill:#655d41; stroke:none;" d="M524 317L525 318L524 317z"/>
<path style="fill:#f1b183; stroke:none;" d="M409 318L409 326L410 326L409 318z"/>
<path style="fill:#655d41; stroke:none;" d="M519 318L520 319L519 318M280 319L281 320L280 319M285 319L286 320L285 319M520 319L521 320L520 319M525 319L525 326L526 326L525 319M284.333 322.667L284.667 323.333L284.333 322.667M520 325L521 326L520 325M280 326L281 327L280 326M286 327L287 328L286 327z"/>
<path style="fill:#f1b183; stroke:none;" d="M410 327L410 331L411 331L410 327z"/>
<path style="fill:#655d41; stroke:none;" d="M281 328L282 329L281 328M287 328L288 329L287 328z"/>
<path style="fill:#f1b183; stroke:none;" d="M416 328L416 331L417 331L416 328z"/>
<path style="fill:#655d41; stroke:none;" d="M524 328L525 329L524 328M288 329L289 330L288 329M523 329L524 330L523 329M282 330L283 331L282 330M289 330L290 331L289 330M283 331L284 332L283 331M290 331L291 332L290 331z"/>
<path style="fill:#f1b183; stroke:none;" d="M411.333 331.667L411.667 332.333L411.333 331.667M417.333 331.667L417.667 332.333L417.333 331.667z"/>
<path style="fill:#655d41; stroke:none;" d="M453 331L454 332L453 331M284 332L285 333L284 332M455 332L456 333L455 332M285 333L286 334L285 333z"/>
<path style="fill:#f1b183; stroke:none;" d="M412.333 333.667L412.667 334.333L412.333 333.667M418.333 333.667L418.667 334.333L418.333 333.667z"/>
<path style="fill:#655d41; stroke:none;" d="M456 333L457 334L456 333M286 334L287 335L286 334M457 334L458 335L457 334M287 335L288 336L287 335z"/>
<path style="fill:#f1b183; stroke:none;" d="M419 335L420 336L419 335z"/>
<path style="fill:#655d41; stroke:none;" d="M288 336L289 337L288 336z"/>
<path style="fill:#f1b183; stroke:none;" d="M413 336L414 337L413 336M420 336L421 337L420 336z"/>
<path style="fill:#655d41; stroke:none;" d="M458.333 336.667L458.667 337.333L458.333 336.667M289 337L290 338L289 337z"/>
<path style="fill:#f1b183; stroke:none;" d="M414.333 337.667L414.667 338.333L414.333 337.667M421 337L422 338L421 337M448.667 337.333L449.333 337.667L448.667 337.333M451 337L452 338L451 337z"/>
<path style="fill:#655d41; stroke:none;" d="M290 338L291 339L290 338z"/>
<path style="fill:#f1b183; stroke:none;" d="M422 338L423 339L422 338M447 338L448 339L447 338M452 338L452 342L453 342L452 338z"/>
<path style="fill:#655d41; stroke:none;" d="M291 339L292 340L291 339z"/>
<path style="fill:#f1b183; stroke:none;" d="M415 339L416 340L415 339M423 339L424 340L423 339M446 339L447 340L446 339z"/>
<path style="fill:#655d41; stroke:none;" d="M292 340L293 341L292 340z"/>
<path style="fill:#f1b183; stroke:none;" d="M416 340L417 341L416 340M424.667 340.333L425.333 340.667L424.667 340.333M444 340L445 341L444 340z"/>
<path style="fill:#655d41; stroke:none;" d="M293 341L294 342L293 341z"/>
<path style="fill:#f1b183; stroke:none;" d="M417 341L418 342L417 341M426 341L427 342L426 341M442.667 341.333L443.333 341.667L442.667 341.333z"/>
<path style="fill:#655d41; stroke:none;" d="M294 342L295 343L294 342z"/>
<path style="fill:#f1b183; stroke:none;" d="M418 342L419 343L418 342M428.667 342.333L429.333 342.667L428.667 342.333M439.667 342.333L440.333 342.667L439.667 342.333M451 342L452 343L451 342z"/>
<path style="fill:#655d41; stroke:none;" d="M458 342L459 343L458 342M295 343L296 344L295 343z"/>
<path style="fill:#f1b183; stroke:none;" d="M419 343L420 344L419 343M432 343L432 344L437 344L432 343M449.667 343.333L450.333 343.667L449.667 343.333z"/>
<path style="fill:#655d41; stroke:none;" d="M296 344L297 345L296 344z"/>
<path style="fill:#f1b183; stroke:none;" d="M421 344L422 345L421 344M448 344L449 345L448 344z"/>
<path style="fill:#655d41; stroke:none;" d="M457 344L458 345L457 344M297 345L298 346L297 345z"/>
<path style="fill:#f1b183; stroke:none;" d="M422.667 345.333L423.333 345.667L422.667 345.333M446.667 345.333L447.333 345.667L446.667 345.333z"/>
<path style="fill:#655d41; stroke:none;" d="M298 346L299 347L298 346z"/>
<path style="fill:#f1b183; stroke:none;" d="M424.667 346.333L425.333 346.667L424.667 346.333M444.667 346.333L445.333 346.667L444.667 346.333z"/>
<path style="fill:#655d41; stroke:none;" d="M299 347L300 348L299 347z"/>
<path style="fill:#f1b183; stroke:none;" d="M427.667 347.333L428.333 347.667L427.667 347.333M441.667 347.333L442.333 347.667L441.667 347.333z"/>
<path style="fill:#655d41; stroke:none;" d="M454 347L455 348L454 347M362.333 348.667L362.667 349.333L362.333 348.667M453 348L454 349L453 348M452 349L453 350L452 349M509 372L510 372C510 364.318 508.262 356.134 515 351L515 371L516 371L516 349C506.801 353.341 509 363.359 509 372M290 350L290 372L291 372L291 351C297.752 358.303 294.434 365.319 297 374L298 374C295.889 365.131 299.917 354.68 290 350M450 350L451 351L450 350z"/>
<path style="fill:#f1b183; stroke:none;" d="M291 351C291 359.435 288.029 374.743 297.044 379.543C301.639 381.99 307.975 381 313 381L347 381L462 381C474.182 381 497.115 385.429 507.985 379.821C517.748 374.783 515 359.998 515 351C504.65 356.22 515.696 372 503.995 376.397C491.785 380.985 471.06 377 458 377L353 377L318 377C312.883 377 305.861 378.217 301.044 376.258C291.017 372.178 299.491 357.469 291 351z"/>
<path style="fill:#655d41; stroke:none;" d="M448.667 351.333L449.333 351.667L448.667 351.333M364 352L365 353L364 352M446.667 352.333L447.333 352.667L446.667 352.333z"/>
<path style="fill:#dfdadb; stroke:none;" d="M513 352L512 355L513 352M292 353L292 355L294 355L292 353z"/>
<path style="fill:#655d41; stroke:none;" d="M366 353L367 354L366 353M375 353L376 354L375 353M443.667 353.333L444.333 353.667L443.667 353.333M368.667 354.333L369.333 354.667L368.667 354.333M372.667 354.333L373.333 354.667L372.667 354.333M499 354L500 355L499 354M495 358L496 359L495 358M494 359L495 360L494 359M493 360L494 361L493 360M492 361L493 362L492 361M491 362L492 363L491 362M490 363L491 364L490 363M489 364L490 365L489 364M488 365L489 366L488 365M487 366L488 367L487 366z"/>
<path style="fill:#bf405b; stroke:none;" d="M295 367L295 370L296 370L295 367z"/>
<path style="fill:#655d41; stroke:none;" d="M486 367L487 368L486 367M485 368L486 369L485 368M322 369L322 370L328 370L322 369M478 369L478 370L484 370L478 369z"/>
<path style="fill:#bf405b; stroke:none;" d="M514 371L515 372L514 371M291 372L292 373L291 372M509 372L510 373L509 372z"/>
<path style="fill:#655d41; stroke:none;" d="M514 372L513 376L514 376L514 372M291 373L292 377L293 377L291 373M508 373L509 374L508 373z"/>
<path style="fill:#bf405b; stroke:none;" d="M297 374L298 375L297 374z"/>
<path style="fill:#655d41; stroke:none;" d="M507 374L508 375L507 374z"/>
<path style="fill:#bf405b; stroke:none;" d="M513 374L514 375L513 374M292 375L293 376L292 375M298 375L299 376L298 375z"/>
<path style="fill:#655d41; stroke:none;" d="M299 375L300 376L299 375M506 375L507 376L506 375z"/>
<path style="fill:#bf405b; stroke:none;" d="M300 376L301 377L300 376z"/>
<path style="fill:#655d41; stroke:none;" d="M301 376L301 377L505 377L485 376L444 376L301 376z"/>
<path style="fill:#bf405b; stroke:none;" d="M505 376L506 377L505 376M512 376L509 380L512 376z"/>
<path style="fill:#655d41; stroke:none;" d="M293 377L294 378L293 377M512 377L513 378L512 377M294 378L295 379L294 378M511 378L512 379L511 378M295 379L297 381L295 379z"/>
<path style="fill:#bf405b; stroke:none;" d="M296 379L297 380L296 379z"/>
<path style="fill:#655d41; stroke:none;" d="M510 379L511 380L510 379z"/>
<path style="fill:#bf405b; stroke:none;" d="M297 380L297 381C318.071 386.017 344.338 382 366 382L506 382L506 381L368 381C345.114 381 319.51 384.179 297 380M507.667 380.333L508.333 380.667L507.667 380.333z"/>
<path style="fill:#655d41; stroke:none;" d="M298 381L299 382L298 381M506.667 381.333L507.333 381.667L506.667 381.333M302 382L302 383L504 383L485 382L444 382L302 382M343 390L360 407L354 400C368.589 403.974 377.957 422.517 390 431C381.785 419.338 369.543 409.369 359 399.83C353.822 395.146 350.39 390.24 343 390M426 421L451 400L441 412L463 390C449.879 390.155 433.203 410.775 426 421z"/>
<path style="fill:#bf405b; stroke:none;" d="M354 400C362.361 412.011 374.064 421.207 383.83 432C388.797 437.489 393.932 444.825 402 445.578C408.777 446.21 413.687 440.306 418 436C428.827 425.191 443.895 413.696 451 400C438.841 402.891 425.745 420.269 417 429C413.639 432.356 408.262 440.133 403 440.133C398.437 440.133 394.143 434.154 391 431.424C380.717 422.496 367.994 402.121 354 400z"/>
<path style="fill:#655d41; stroke:none;" d="M367 415L368 416L367 415M368 416L369 417L368 416M369 417L370 418L369 417M370 418L371 419L370 418M371 419L372 420L371 419M372 420L373 421L372 420M373 421L374 422L373 421M374 422L375 423L374 422M375 423L376 424L375 423M376 424L377 425L376 424M377 425L378 426L377 425M378 426L379 427L378 426M379 427L380 428L379 427M380 428L381 429L380 428M381 429L382 430L381 429M382 430L383 431L382 430M383 431L384 432L383 431M384 432L385 433L384 432M385 433L386 434L385 433M404 440L405 441L404 440M397 444L398 445L397 444M400 445L401 446L400 445z"/>
</svg>
